# xmcd
#
# Track frame offsets:
#	150
#	11325
#	23925
#	37565
#	48040
#	60747
#	74115
#	87120
#	100815
#	115565
#	127952
#	141412
#	153577
#	167837
#	182500
#	191627
#	203727
#	215352
#	228695
#	242592
#	254865
#	267422
#	279115
#	292117
#	304322
#	314390
#	325245
#
# Disc length: 4516 seconds
#
# Revision: 0
# Processed by: cddbd v1.5.1PL0 Copyright (c) Steve Scherf et al.
# Submitted via: EasyCDDAExtractor 7.5.0.1
#
DISCID=8711a21b
DTITLE=Tex Ritter - High Noon 1942-1952
DYEAR=2003
DGENRE=Country and Western
TTITLE0=High Noon (Do Not Forsake Me)
TTITLE1=I Got Spurs That Jingle, Jangle, Jingle
TTITLE2=There's A New Moon Over My Shoulder
TTITLE3=Have I Stayed Away Too Long
TTITLE4=I'm Wastin' My Tears On You
TTITLE5=Jealous Heart
TTITLE6=You Will Have To Pay
TTITLE7=Long Time Gone
TTITLE8=Rounded Up In Glory
TTITLE9=You Two-timed Me Once Too Often
TTITLE10=Blood On The Saddle
TTITLE11=The Old Chisholm Trail
TTITLE12=Bad Brahma Bull
TTITLE13=Rye Whiskey
TTITLE14=Froggy Went A-courtin'
TTITLE15=Green Grow The Lilacs
TTITLE16=Have I Told You Lately That I Love You
TTITLE17=When You Leave, Don't Slam The Door
TTITLE18=Cattle Call
TTITLE19=Don't Make Me Sorry
TTITLE20=I Can't Get My Foot Off The Rail
TTITLE21=I've Had Enough Of Your Two Timin'
TTITLE22=Pecos Bill
TTITLE23=Rock And Rye
TTITLE24=Careless Hands
TTITLE25=I've Got Five Dollars And It's Saturday Night
TTITLE26=Deck Of Cards
EXTD=
EXTT0=
EXTT1=
EXTT2=
EXTT3=
EXTT4=
EXTT5=
EXTT6=
EXTT7=
EXTT8=
EXTT9=
EXTT10=
EXTT11=
EXTT12=
EXTT13=
EXTT14=
EXTT15=
EXTT16=
EXTT17=
EXTT18=
EXTT19=
EXTT20=
EXTT21=
EXTT22=
EXTT23=
EXTT24=
EXTT25=
EXTT26=
PLAYORDER=
